<?xml version="1.0" encoding="UTF-8"?>
<svg width="23px" height="22px" viewBox="0 0 23 22" version="1.1" xmlns="http://www.w3.org/2000/svg" xmlns:xlink="http://www.w3.org/1999/xlink">
    <title>184A3179-9A60-4CF8-946D-3BBA57D2ADD2</title>
    <g id="Page-1" stroke="none" stroke-width="1" fill="none" fill-rule="evenodd">
        <g id="map-view1" transform="translate(-1073.000000, -165.000000)">
            <g id="Group-7" transform="translate(1074.000000, 165.000000)">
                <g id="noun_Cursor-Pen_1881148" transform="translate(0.769231, 2.769231)" fill="#FFFFFF" fill-rule="nonzero" stroke="#242424" stroke-linejoin="round" stroke-width="0.8">
                    <path d="M16.9015385,6.46153846 C14.3854804,8.97183357 12.7003929,12.1937982 12.0738462,15.6923077 C8.43692308,15.7846154 4.06153846,17.2246154 0.784615385,18.3230769 L7.81846154,11.2984615 L8.11384615,11.4461538 C8.32457106,11.5194871 8.54611028,11.5569304 8.76923077,11.5569231 C9.55089897,11.565814 10.2534345,11.0814342 10.5230769,10.3476923 C10.6978441,9.88273851 10.6778791,9.36697543 10.4676923,8.91692308 C10.1716369,8.20817928 9.46768401,7.75678692 8.70005477,7.78346922 C7.93242553,7.81015152 7.26151402,8.30933328 7.01538462,9.03692308 C6.84061742,9.50187687 6.86058245,10.01764 7.07076923,10.4676923 C7.09909149,10.5291823 7.13308473,10.5878979 7.17230769,10.6430769 L0.138461538,17.6769231 C1.22769231,14.4 2.65846154,10.0246154 2.76923077,6.39692308 C6.89089749,5.71429619 10.6293621,3.57147775 13.3015385,0.36 L13.4123077,0.221538462 L18.2676923,5.07692308 L16.9015385,6.46153846 Z M7.91076923,10.1076923 C7.76352727,9.81605601 7.7814075,9.46831293 7.95778455,9.19331646 C8.1341616,8.91831998 8.44275987,8.75703744 8.76923077,8.76923077 C8.88226928,8.76956414 8.99450202,8.78826959 9.10153846,8.82461538 C9.33261548,8.91507228 9.52069091,9.08994944 9.62769231,9.31384615 C9.81769892,9.66217751 9.76384437,10.0929643 9.49393279,10.3837993 C9.2240212,10.6746342 8.79844571,10.7604426 8.43692308,10.5969231 C8.2025233,10.5020405 8.01396008,10.3200935 7.91076923,10.0892308 L7.91076923,10.1076923 Z" id="Shape"></path>
                </g>
                <polygon id="Path-6" fill="#1D1D1D" points="12.8095703 2.07557091 20.099985 9.69073017 21.7075947 8.12357272 14.3608398 0.548527644"></polygon>
            </g>
        </g>
    </g>
</svg>